wght100.ufo
<glyph name="A" format="2">
	<unicode hex="0041"/>
	<advance width="1379"/>
	<outline>
		<contour>
			<point x="-203.2861328125" y="0" type="line"/>
			<point x="-186.2749023438" y="100.001953125" type="line"/>
			<point x="3.4189453125" y="130.001953125" type="line"/>
			<point x="339.0207519531" y="668.4447021484" type="line"/>
			<point x="934.462097168" y="1517" type="line"/>
			<point x="1081.5575561523" y="1499" type="line"/>
			<point x="1120.8614501953" y="655" type="line"/>
			<point x="1146.4026489258" y="130.001953125" type="line"/>
			<point x="1315.0095825195" y="100.001953125" type="line"/>
			<point x="1296.6077270508" y="0" type="line"/>
			<point x="777.7363891602" y="0" type="line"/>
			<point x="796.1382446289" y="100.001953125" type="line"/>
			<point x="966.7451782227" y="130.001953125" type="line"/>
			<point x="960.882019043" y="648" type="line"/>
			<point x="891" y="1166" type="line"/>
			<point x="886" y="1287" type="line"/>
			<point x="876" y="1287" type="line"/>
			<point x="799" y="1167" type="line"/>
			<point x="434.4870605469" y="619.6665039062" type="line"/>
			<point x="151.7540283203" y="130.001953125" type="line"/>
			<point x="326.6651611328" y="100.001953125" type="line"/>
			<point x="309.6539306641" y="0" type="line"/>
		</contour>
		<contour>
			<point x="360.9827270508" y="565.2215576172" type="line"/>
			<point x="426.6149291992" y="687.333984375" type="line"/>
			<point x="731.2429199219" y="667.3344726562" type="line"/>
			<point x="696.2424316406" y="564.5544433594" type="line"/>
		</contour>
		<contour>
			<point x="731.2429199219" y="667.3344726562" type="line"/>
			<point x="1050.0293579102" y="688.0006103516" type="line"/>
			<point x="1051.3568725586" y="579.8883056641" type="line"/>
			<point x="696.2424316406" y="564.5544433594" type="line"/>
		</contour>
	</outline>
	<anchor name="bottom" x="523" y="0"/>
	<anchor name="ogonek" x="1098" y="0"/>
	<anchor name="top" x="954" y="1500"/>
	<anchor name="tonos" x="613" y="1500"/>
</glyph>
<glyph name="B" format="2">
	<unicode hex="0042"/>
	<advance width="1233"/>
	<outline>
		<contour>
			<point x="-66.6008911133" y="0" type="line"/>
			<point x="-51.7205200195" y="100.001953125" type="line"/>
			<point x="139.4296264648" y="129.001953125" type="line"/>
			<point x="265.5492553711" y="754" type="line"/>
			<point x="381.2689819336" y="1366.7177734375" type="line"/>
			<point x="180.9884643555" y="1393.7177734375" type="line"/>
			<point x="190.0514526367" y="1500" type="line"/>
			<point x="745.1511230469" y="1500" type="line" smooth="yes"/>
			<point x="954.7716674805" y="1500"/>
			<point x="1126.1548461914" y="1308"/>
			<point x="1114.3655395508" y="1163" type="qcurve" smooth="yes"/>
			<point x="1103.5762329102" y="1028"/>
			<point x="935.2632446289" y="833"/>
			<point x="824.9779663086" y="800" type="qcurve"/>
			<point x="823.9779663086" y="793" type="line"/>
			<point x="960.5205688477" y="767"/>
			<point x="1119.1234741211" y="575"/>
			<point x="1091.9127807617" y="413" type="qcurve" smooth="yes"/>
			<point x="1059.5158691406" y="215"/>
			<point x="734.9923095703" y="0"/>
			<point x="503.8375244141" y="0" type="qcurve" smooth="yes"/>
		</contour>
		<contour>
			<point x="307.2867431641" y="124.3345947266" type="line"/>
			<point x="327.7312011719" y="106.5568847656" type="line"/>
			<point x="503.3275756836" y="106.5568847656" type="line" smooth="yes"/>
			<point x="659.8566894531" y="106.5568847656"/>
			<point x="880.5087890625" y="251"/>
			<point x="905.6950073242" y="420" type="qcurve" smooth="yes"/>
			<point x="926.6950073242" y="565"/>
			<point x="781.0579833984" y="726.7769775391"/>
			<point x="637.3483886719" y="726.7769775391" type="qcurve" smooth="yes"/>
			<point x="423.7662353516" y="726.7769775391" type="line"/>
			<point x="419.6551513672" y="700.5548095703" type="line"/>
		</contour>
		<contour>
			<point x="450.3977050781" y="854.22265625" type="line"/>
			<point x="446.7310791016" y="838.333984375" type="line"/>
			<point x="613.2568969727" y="838.333984375" type="line" smooth="yes"/>
			<point x="737.9738769531" y="838.333984375"/>
			<point x="916.9985351562" y="1001"/>
			<point x="931.8812255859" y="1155" type="qcurve" smooth="yes"/>
			<point x="943.7639160156" y="1283"/>
			<point x="805.1441650391" y="1389.7762451172"/>
			<point x="692.1999511719" y="1389.7762451172" type="qcurve" smooth="yes"/>
			<point x="574.5084228516" y="1389.7762451172" type="line"/>
			<point x="545.9528808594" y="1373.9985351562" type="line"/>
		</contour>
	</outline>
	<anchor name="bottom" x="630" y="0"/>
	<anchor name="top" x="630" y="1500"/>
</glyph>
<glyph name="D" format="2">
	<unicode hex="0044"/>
	<advance width="1462"/>
	<outline>
		<contour>
			<point x="-66.419128418" y="0" type="line"/>
			<point x="-51.5387573242" y="100.001953125" type="line"/>
			<point x="139.6113891602" y="129.001953125" type="line"/>
			<point x="266.2777099609" y="754" type="line"/>
			<point x="378.3306274414" y="1366.7177734375" type="line"/>
			<point x="181.4512329102" y="1393.7177734375" type="line"/>
			<point x="190.0159301758" y="1500" type="line"/>
			<point x="772.9859008789" y="1500" type="line" smooth="yes"/>
			<point x="1107.8756103516" y="1500"/>
			<point x="1444.8539428711" y="1079"/>
			<point x="1380.7109985352" y="747" type="qcurve" smooth="yes"/>
			<point x="1315.3771362305" y="402"/>
			<point x="800.3442382812" y="0"/>
			<point x="476.0062866211" y="0" type="qcurve" smooth="yes"/>
		</contour>
		<contour>
			<point x="306.3662719727" y="123.1124267578" type="line"/>
			<point x="330.8560791016" y="117.3748168945"/>
			<point x="513.5982666016" y="101.1124267578"/>
			<point x="567.166809082" y="101.1124267578" type="qcurve" smooth="yes"/>
			<point x="773.9332885742" y="101.1124267578"/>
			<point x="1144.7166137695" y="442.6672363281"/>
			<point x="1201.5866088867" y="746" type="qcurve" smooth="yes"/>
			<point x="1256.710144043" y="1031.2216796875"/>
			<point x="1026.6763305664" y="1386.220703125"/>
			<point x="791.7775878906" y="1386.220703125" type="qcurve" smooth="yes"/>
			<point x="740.7192382812" y="1386.220703125"/>
			<point x="573.1419067383" y="1381.220703125"/>
			<point x="549.5879516602" y="1376.220703125" type="qcurve"/>
			<point x="430.3748779297" y="754" type="line"/>
		</contour>
	</outline>
	<anchor name="bottom" x="686" y="0"/>
	<anchor name="center" x="448" y="754"/>
	<anchor name="top" x="827" y="1500"/>
	<anchor name="liga" x="1431" y="0"/>
</glyph>
<glyph name="F" format="2">
	<unicode hex="0046"/>
	<advance width="1065"/>
	<outline>
		<contour>
			<point x="-73.2229614258" y="0" type="line"/>
			<point x="-53.342590332" y="100.001953125" type="line"/>
			<point x="138.132019043" y="130.001953125" type="line"/>
			<point x="275.731628418" y="806" type="line"/>
			<point x="376.2911987305" y="1367.7177734375" type="line"/>
			<point x="179.8864135742" y="1393.7177734375" type="line"/>
			<point x="188.4511108398" y="1500" type="line"/>
			<point x="1142.4012451172" y="1500" type="line"/>
			<point x="1113.4012451172" y="1207" type="line"/>
			<point x="1018.3990478516" y="1207" type="line"/>
			<point x="992.9543457031" y="1392.1097412109" type="line"/>
			<point x="583.4774780273" y="1392.1097412109" type="line"/>
			<point x="548.4774780273" y="1372.1097412109" type="line"/>
			<point x="436.9221801758" y="794" type="line"/>
			<point x="309.3225708008" y="130.001953125" type="line"/>
			<point x="522.4524536133" y="100.001953125" type="line"/>
			<point x="504.5938110352" y="0" type="line"/>
		</contour>
		<contour>
			<point x="332" y="751" type="line"/>
			<point x="351" y="851" type="line"/>
			<point x="803.2878417969" y="856.4451904297" type="line"/>
			<point x="863.3988037109" y="1003" type="line"/>
			<point x="957.4012451172" y="1003" type="line"/>
			<point x="872.4012451172" y="573" type="line"/>
			<point x="782.3988037109" y="573" type="line"/>
			<point x="781.509765625" y="738.9992675781" type="line"/>
		</contour>
	</outline>
	<anchor name="bottom" x="578" y="0"/>
	<anchor name="top" x="622" y="1500"/>
</glyph>
<glyph name="G" format="2">
	<unicode hex="0047"/>
	<advance width="1411"/>
	<outline>
		<contour>
			<point x="98.9653370059" y="839" type="qcurve" smooth="yes"/>
			<point x="175.9653370059" y="1151"/>
			<point x="648.4251380778" y="1542.6880493164"/>
			<point x="896.9533973551" y="1523" type="qcurve" smooth="yes"/>
			<point x="969.7118812418" y="1518"/>
			<point x="1165.5097938395" y="1474.3333740234"/>
			<point x="1214.7513709879" y="1448" type="qcurve" smooth="yes"/>
			<point x="1240.1166053629" y="1434" type="line"/>
			<point x="1273.0064369059" y="1420" type="line"/>
			<point x="1218.0064369059" y="1109" type="line"/>
			<point x="1116.8038001872" y="1109" type="line"/>
			<point x="1113.603360734" y="1265.0205078125" type="line"/>
			<point x="1082.1894203043" y="1323.3536376953"/>
			<point x="906.9036537028" y="1393.2424316406"/>
			<point x="847.3011756754" y="1401.2204589844" type="qcurve" smooth="yes"/>
			<point x="676.9918495036" y="1421.0492553711"/>
			<point x="353.9165699161" y="1135"/>
			<point x="283.2764942325" y="842" type="qcurve" smooth="yes"/>
			<point x="202.3740284122" y="505.4444580078"/>
			<point x="394.2768836832" y="150.4462890625"/>
			<point x="565.8833900309" y="115.2239990234" type="qcurve" smooth="yes"/>
			<point x="668.4768958903" y="92.890625"/>
			<point x="911.8590980387" y="145.4459228516"/>
			<point x="1031.9349037028" y="227.3352050781" type="qcurve"/>
			<point x="1094.9786048747" y="562.9580078125" type="line"/>
			<point x="909.3579994059" y="588.4780273438" type="line"/>
			<point x="919.4461341715" y="690" type="line"/>
			<point x="1420.5063758707" y="690" type="line"/>
			<point x="1407.3347450114" y="586.9580078125" type="line"/>
			<point x="1261.715848527" y="561.9580078125" type="line"/>
			<point x="1191.9566932536" y="176.9221191406" type="line"/>
			<point x="1076.5538612223" y="117.9610595703" type="line"/>
			<point x="977.9454627848" y="41.7736206055"/>
			<point x="697.0339027262" y="-37"/>
			<point x="523.228360734" y="-16" type="qcurve" smooth="yes"/>
			<point x="282.7117591715" y="13"/>
			<point x="12.9653370059" y="490"/>
		</contour>
	</outline>
	<anchor name="bottom" x="667" y="0"/>
	<anchor name="top" x="907" y="1492"/>
</glyph>
<glyph name="H" format="2">
	<unicode hex="0048"/>
	<advance width="1566"/>
	<outline>
		<contour>
			<point x="-70.7908935547" y="0" type="line"/>
			<point x="-50.9105224609" y="99.001953125" type="line"/>
			<point x="140.0657958984" y="130.001953125" type="line"/>
			<point x="278.1854248047" y="806" type="line"/>
			<point x="377.7049560547" y="1361.9975585938" type="line"/>
			<point x="182.6429443359" y="1393.1977539062" type="line"/>
			<point x="190.6441650391" y="1500" type="line"/>
			<point x="755.6253051758" y="1500" type="line"/>
			<point x="735.2066040039" y="1393.1977539062" type="line"/>
			<point x="546.2554321289" y="1361.9975585938" type="line"/>
			<point x="436.7359008789" y="790" type="line"/>
			<point x="308.6162719727" y="130.001953125" type="line"/>
			<point x="501.653137207" y="99.001953125" type="line"/>
			<point x="495.190246582" y="0" type="line"/>
		</contour>
		<contour>
			<point x="346" y="738" type="line"/>
			<point x="367" y="855" type="line"/>
			<point x="804.897277832" y="839.6674804688" type="line"/>
			<point x="1242.6113891602" y="845.4453125" type="line"/>
			<point x="1218.2777709961" y="727.5549316406" type="line"/>
			<point x="783.4525756836" y="733.3327636719" type="line"/>
		</contour>
		<contour>
			<point x="813.7529907227" y="0" type="line"/>
			<point x="831.6333618164" y="99.001953125" type="line"/>
			<point x="1027.6096801758" y="130.001953125" type="line"/>
			<point x="1157.729309082" y="788" type="line"/>
			<point x="1257.248840332" y="1361.9975585938" type="line"/>
			<point x="1067.1868286133" y="1393.1977539062" type="line"/>
			<point x="1075.1880493164" y="1500" type="line"/>
			<point x="1637.1474609375" y="1500" type="line"/>
			<point x="1618.7287597656" y="1393.1977539062" type="line"/>
			<point x="1427.7993164062" y="1361.9975585938" type="line"/>
			<point x="1317.3731689453" y="771" type="line"/>
			<point x="1194.2535400391" y="130.001953125" type="line"/>
			<point x="1386.2686767578" y="99.001953125" type="line"/>
			<point x="1379.8057861328" y="0" type="line"/>
		</contour>
	</outline>
	<anchor name="bottom" x="607" y="0"/>
	<anchor name="center" x="820" y="1079"/>
	<anchor name="top" x="950" y="1500"/>
	<anchor name="tonos" x="81" y="1500"/>
	<anchor name="cy_descender" x="1399" y="100"/>
</glyph>
<glyph name="I" format="2">
	<unicode hex="0049"/>
	<advance width="709"/>
	<outline>
		<contour>
			<point x="-59.0338745117" y="0" type="line"/>
			<point x="-41.1752319336" y="100.0419921875" type="line"/>
			<point x="149.9531860352" y="131.0419921875" type="line"/>
			<point x="288.6412353516" y="806" type="line"/>
			<point x="388.6541137695" y="1367.7177734375" type="line"/>
			<point x="191.858215332" y="1393.7177734375" type="line"/>
			<point x="200.401184082" y="1500" type="line"/>
			<point x="768.9602050781" y="1500" type="line"/>
			<point x="747.9997558594" y="1393.7177734375" type="line"/>
			<point x="558.8713378906" y="1367.7177734375" type="line"/>
			<point x="448.8317871094" y="790" type="line"/>
			<point x="320.6904296875" y="131.0419921875" type="line"/>
			<point x="519.1665039062" y="100.0419921875" type="line"/>
			<point x="506.3078613281" y="0" type="line"/>
		</contour>
	</outline>
	<anchor name="bottom" x="220" y="0"/>
	<anchor name="ogonek" x="356" y="0"/>
	<anchor name="top" x="503" y="1500"/>
	<anchor name="tonos" x="81" y="1500"/>
	<anchor name="yu_dash" x="365" y="795"/>
	<anchor name="liga" x="712" y="0"/>
</glyph>
<glyph name="J" format="2">
	<unicode hex="004A"/>
	<advance width="691"/>
	<outline>
		<contour>
			<point x="-196.6516113281" y="-254.3342285156" type="qcurve"/>
			<point x="-164.9844970703" y="-138.9992675781" type="line"/>
			<point x="-143.5070800781" y="-145.2214355469"/>
			<point x="-83.4817504883" y="-161.7769775391"/>
			<point x="-33.6753540039" y="-161.7769775391" type="qcurve" smooth="yes"/>
			<point x="44.3582763672" y="-161.7769775391"/>
			<point x="107.7301025391" y="-45"/>
			<point x="139.7301025391" y="112" type="qcurve" smooth="yes"/>
			<point x="270.7301025391" y="754" type="line"/>
			<point x="381.2896728516" y="1367.7177734375" type="line"/>
			<point x="184.3199462891" y="1393.7177734375" type="line"/>
			<point x="192.8629150391" y="1500" type="line"/>
			<point x="759.7014160156" y="1500" type="line"/>
			<point x="744.1584472656" y="1393.7177734375" type="line"/>
			<point x="551.4802246094" y="1367.7177734375" type="line"/>
			<point x="434.9206542969" y="754" type="line"/>
			<point x="319.9206542969" y="164" type="line" smooth="yes"/>
			<point x="272.9206542969" y="-78"/>
			<point x="112.5291137695" y="-289.3342285156"/>
			<point x="-15.1011352539" y="-289.3342285156" type="qcurve" smooth="yes"/>
			<point x="-82.3510742188" y="-289.3342285156"/>
			<point x="-179.9315185547" y="-265.0008544922"/>
		</contour>
	</outline>
	<anchor name="bottom" x="376" y="-208"/>
	<anchor name="top" x="533" y="1500"/>
	<anchor name="_liga" x="0" y="0"/>
</glyph>
<glyph name="L" format="2">
	<unicode hex="004C"/>
	<advance width="1072"/>
	<outline>
		<contour>
			<point x="-71.587097168" y="0" type="line"/>
			<point x="-56.5824584961" y="100.001953125" type="line"/>
			<point x="134.5676879883" y="130.001953125" type="line"/>
			<point x="278.9275512695" y="806" type="line"/>
			<point x="383.1272583008" y="1368.2377929688" type="line"/>
			<point x="181.6077270508" y="1394.2377929688" type="line"/>
			<point x="189.6306762695" y="1500" type="line"/>
			<point x="756.2331542969" y="1500" type="line"/>
			<point x="742.2102050781" y="1394.2377929688" type="line"/>
			<point x="553.8645019531" y="1368.2377929688" type="line"/>
			<point x="432.6647949219" y="754" type="line"/>
			<point x="307.3137207031" y="134.8902587891" type="line"/>
			<point x="331.3137207031" y="107.8902587891" type="line"/>
			<point x="765.3685302734" y="107.8902587891" type="line"/>
			<point x="913.3685302734" y="375.8902587891" type="line"/>
			<point x="1018.7712402344" y="375.8902587891" type="line"/>
			<point x="877.9927978516" y="0" type="line"/>
		</contour>
	</outline>
	<anchor name="bottom" x="535" y="0"/>
	<anchor name="centerright" x="755" y="750"/>
	<anchor name="top" x="878" y="1500"/>
	<anchor name="topright" x="804" y="1001"/>
	<anchor name="center" x="397" y="750"/>
	<anchor name="liga" x="1104" y="0"/>
</glyph>
<glyph name="M" format="2">
	<unicode hex="004D"/>
	<advance width="1872"/>
	<outline>
		<contour>
			<point x="-105.1360473633" y="0" type="line"/>
			<point x="-94.6731567383" y="100.001953125" type="line"/>
			<point x="109.4118041992" y="130.001953125" type="line"/>
			<point x="242.3563232422" y="753" type="line"/>
			<point x="363.9713745117" y="1367.7177734375" type="line"/>
			<point x="164.9515991211" y="1393.7177734375" type="line"/>
			<point x="176.4945678711" y="1500" type="line"/>
			<point x="646.6664428711" y="1500" type="line"/>
			<point x="733.8391113281" y="794.8590698242" type="line"/>
			<point x="815" y="327" type="line"/>
			<point x="831" y="213" type="line"/>
			<point x="841" y="213" type="line"/>
			<point x="900" y="327" type="line"/>
			<point x="1153.1607055664" y="841.1695556641" type="line"/>
			<point x="1491.1730957031" y="1498" type="line"/>
			<point x="1943.8673706055" y="1500" type="line"/>
			<point x="1925.9904174805" y="1393.7177734375" type="line"/>
			<point x="1735.9706420898" y="1367.7177734375" type="line"/>
			<point x="1620.5311279297" y="754" type="line"/>
			<point x="1492.9311523438" y="130.001953125" type="line"/>
			<point x="1693.1682128906" y="100.001953125" type="line"/>
			<point x="1684.7053222656" y="0" type="line"/>
			<point x="1102.3853149414" y="0" type="line"/>
			<point x="1110.8482055664" y="100.001953125" type="line"/>
			<point x="1325.1939086914" y="130.001953125" type="line"/>
			<point x="1459.4339599609" y="753" type="line"/>
			<point x="1580" y="1244" type="line"/>
			<point x="1606" y="1363" type="line"/>
			<point x="1597" y="1365" type="line"/>
			<point x="1539" y="1258" type="line"/>
			<point x="1232.4133300781" y="776.0020141602" type="line"/>
			<point x="805.7557983398" y="-7" type="line"/>
			<point x="673.6427612305" y="-7" type="line"/>
			<point x="580.0307006836" y="759.4494018555" type="line"/>
			<point x="499" y="1249" type="line"/>
			<point x="485" y="1357" type="line"/>
			<point x="474" y="1355" type="line"/>
			<point x="456" y="1235" type="line"/>
			<point x="350.9552612305" y="753" type="line"/>
			<point x="235.280090332" y="130.001953125" type="line"/>
			<point x="439.6040649414" y="100.001953125" type="line"/>
			<point x="426.7236938477" y="0" type="line"/>
		</contour>
	</outline>
	<anchor name="bottom" x="768" y="0"/>
	<anchor name="top" x="1048" y="1500"/>
</glyph>
<glyph name="N" format="2">
	<unicode hex="004E"/>
	<advance width="1484"/>
	<outline>
		<contour>
			<point x="-100.2012329102" y="0" type="line"/>
			<point x="-90.7383422852" y="100.001953125" type="line"/>
			<point x="109.4118041992" y="130.001953125" type="line"/>
			<point x="239.731628418" y="753" type="line"/>
			<point x="362.9713745117" y="1367.7177734375" type="line"/>
			<point x="170.9081420898" y="1393.7177734375" type="line"/>
			<point x="182.4511108398" y="1500" type="line"/>
			<point x="584.8316040039" y="1500" type="line"/>
			<point x="837.1158447266" y="820.6826171875" type="line"/>
			<point x="958" y="418" type="line"/>
			<point x="990" y="317" type="line"/>
			<point x="1001" y="319" type="line"/>
			<point x="1024" y="440" type="line"/>
			<point x="1141.3163452148" y="751" type="line"/>
			<point x="1256.5160522461" y="1367.1977539062" type="line"/>
			<point x="1042.061706543" y="1393.1977539062" type="line"/>
			<point x="1058.7098999023" y="1500" type="line"/>
			<point x="1585.8495483398" y="1500" type="line"/>
			<point x="1569.2013549805" y="1393.1977539062" type="line"/>
			<point x="1374.0729370117" y="1367.1977539062" type="line"/>
			<point x="1249.8732299805" y="753" type="line"/>
			<point x="1103.8732299805" y="-4" type="line"/>
			<point x="978.6710205078" y="-4" type="line"/>
			<point x="682.4205932617" y="772.1682128906" type="line"/>
			<point x="507" y="1220" type="line"/>
			<point x="471" y="1324" type="line"/>
			<point x="461" y="1321" type="line"/>
			<point x="442" y="1199" type="line"/>
			<point x="347.8440551758" y="755" type="line"/>
			<point x="226.524230957" y="130.001953125" type="line"/>
			<point x="441.7830200195" y="100.001953125" type="line"/>
			<point x="431.3201293945" y="0" type="line"/>
		</contour>
	</outline>
	<anchor name="bottom" x="640" y="0"/>
	<anchor name="top" x="884" y="1500"/>
	<anchor name="engtail" x="1041" y="0"/>
	<anchor name="liga" x="1432" y="0"/>
</glyph>
<glyph name="O" format="2">
	<unicode hex="004F"/>
	<advance width="1515"/>
	<outline>
		<contour>
			<point x="104.9738769531" y="876" type="qcurve" smooth="yes"/>
			<point x="182.9738769531" y="1226"/>
			<point x="688.6799316406" y="1571.4830932617"/>
			<point x="963.844909668" y="1516.3760986328" type="qcurve" smooth="yes"/>
			<point x="1241.6624145508" y="1459.5534057617"/>
			<point x="1484.3079833984" y="988.5466918945"/>
			<point x="1406.8473510742" y="658" type="qcurve" smooth="yes"/>
			<point x="1318.8619384766" y="285"/>
			<point x="845.9722900391" y="-57.0120239258"/>
			<point x="546.5913085938" y="-14.3760986328" type="qcurve" smooth="yes"/>
			<point x="288.8650512695" y="23.7350463867"/>
			<point x="22.9738769531" y="509"/>
		</contour>
		<contour>
			<point x="276.1916503906" y="870" type="qcurve" smooth="yes"/>
			<point x="205.6416625977" y="540.6976318359"/>
			<point x="372.5350952148" y="138.6254882812"/>
			<point x="582.8138427734" y="104.6254882812" type="qcurve" smooth="yes"/>
			<point x="808.8881835938" y="67.6254882812"/>
			<point x="1163.7931518555" y="349.6812744141"/>
			<point x="1230.4428100586" y="648" type="qcurve" smooth="yes"/>
			<point x="1295.3725585938" y="940.8955078125"/>
			<point x="1147.5751953125" y="1339.9300537109"/>
			<point x="927.0276489258" y="1388.9300537109" type="qcurve" smooth="yes"/>
			<point x="707.028503418" y="1437.9300537109"/>
			<point x="340.9456176758" y="1176.9968261719"/>
		</contour>
	</outline>
	<anchor name="bottom" x="612" y="0"/>
	<anchor name="center" x="765" y="756"/>
	<anchor name="ogonek" x="844" y="0"/>
	<anchor name="top" x="906" y="1500"/>
	<anchor name="topright" x="1044" y="1500"/>
	<anchor name="tonos" x="230" y="1500"/>
	<anchor name="_yu_dash" x="174" y="795"/>
</glyph>
<glyph name="P" format="2">
	<unicode hex="0050"/>
	<advance width="1158"/>
	<outline>
		<contour>
			<point x="-74.467956543" y="0" type="line"/>
			<point x="-65.005065918" y="100.001953125" type="line"/>
			<point x="126.166809082" y="129.001953125" type="line"/>
			<point x="256" y="754" type="line"/>
			<point x="373.7263793945" y="1366.7177734375" type="line"/>
			<point x="173.641418457" y="1393.7177734375" type="line"/>
			<point x="182.2278442383" y="1500" type="line"/>
			<point x="748.3627319336" y="1500" type="line" smooth="yes"/>
			<point x="1000.2672729492" y="1501"/>
			<point x="1199.130859375" y="1266"/>
			<point x="1164.7578735352" y="1059" type="qcurve" smooth="yes"/>
			<point x="1132.3848876953" y="865"/>
			<point x="815.4028320312" y="606.7764892578"/>
			<point x="605.7481079102" y="606.7764892578" type="qcurve" smooth="yes"/>
			<point x="509.0370483398" y="606.7764892578"/>
			<point x="359.0587768555" y="626.5944824219"/>
			<point x="317" y="628" type="qcurve"/>
			<point x="337" y="733" type="line"/>
			<point x="386.2668457031" y="724.2801513672"/>
			<point x="499.7689819336" y="707"/>
			<point x="592.2756347656" y="707" type="qcurve" smooth="yes"/>
			<point x="749.1605834961" y="707"/>
			<point x="960.8202514648" y="881"/>
			<point x="992.8202514648" y="1062" type="qcurve" smooth="yes"/>
			<point x="1021.8202514648" y="1225"/>
			<point x="895.4131469727" y="1391.5540771484"/>
			<point x="720.044128418" y="1391.5540771484" type="qcurve" smooth="yes"/>
			<point x="562.3435668945" y="1391.5540771484" type="line"/>
			<point x="535.8991088867" y="1369.5540771484" type="line"/>
			<point x="419" y="764" type="line"/>
			<point x="294.3573608398" y="130.001953125" type="line"/>
			<point x="498.7899780273" y="100.001953125" type="line"/>
			<point x="488.3270874023" y="0" type="line"/>
		</contour>
	</outline>
	<anchor name="bottom" x="634" y="0"/>
	<anchor name="top" x="634" y="1500"/>
</glyph>
<glyph name="Q" format="2">
	<unicode hex="0051"/>
	<advance width="1516"/>
	<outline>
		<contour>
			<point x="104.2048339844" y="876" type="qcurve" smooth="yes"/>
			<point x="182.2048339844" y="1226"/>
			<point x="688.698059082" y="1574.1069946289"/>
			<point x="963.8630371094" y="1519" type="qcurve" smooth="yes"/>
			<point x="1241.6805419922" y="1462.1773071289"/>
			<point x="1484.3480224609" y="988"/>
			<point x="1406.0783081055" y="658" type="qcurve" smooth="yes"/>
			<point x="1317.5462036133" y="285"/>
			<point x="820.2964477539" y="-51.1512451172"/>
			<point x="551.879699707" y="-17" type="qcurve" smooth="yes"/>
			<point x="309.5479125977" y="15.3599243164"/>
			<point x="22.2048339844" y="509"/>
		</contour>
		<contour>
			<point x="275.4226074219" y="870" type="qcurve" smooth="yes"/>
			<point x="204.9993896484" y="540.6976318359"/>
			<point x="373.0986938477" y="130.6680908203"/>
			<point x="583.5602416992" y="96.6680908203" type="qcurve" smooth="yes"/>
			<point x="809.6345825195" y="59.6680908203"/>
			<point x="1162.0882568359" y="349.7490844727"/>
			<point x="1229.6737670898" y="648" type="qcurve" smooth="yes"/>
			<point x="1295.5393676758" y="940.7598876953"/>
			<point x="1147.5933227539" y="1342.5539550781"/>
			<point x="927.0457763672" y="1391.5539550781" type="qcurve" smooth="yes"/>
			<point x="707.0466308594" y="1440.5539550781"/>
			<point x="340.0498046875" y="1176.9968261719"/>
		</contour>
		<contour>
			<point x="426.034362793" y="-8.8646240234" type="qcurve"/>
			<point x="433.1897583008" y="-12.416015625" type="line"/>
			<point x="863.6790771484" y="-288.6762695312" type="line" smooth="yes"/>
			<point x="913.8604125977" y="-280.7933349609"/>
			<point x="1041.7026977539" y="-193.928527832"/>
			<point x="1094.8048095703" y="-125.7112426758" type="qcurve"/>
			<point x="1168.5834960938" y="-178.4898071289" type="line"/>
			<point x="1116.5834960938" y="-269.4898071289"/>
			<point x="929.3853149414" y="-426.9193725586"/>
			<point x="807.3580932617" y="-434.0263671875" type="qcurve"/>
			<point x="435.4740600586" y="-167.0415649414" type="line"/>
			<point x="352.4520874023" y="-182.2778320312"/>
			<point x="252.6022338867" y="-210.0274047852"/>
			<point x="171.5837402344" y="-279.3342285156" type="qcurve"/>
			<point x="120.5831298828" y="-215" type="line"/>
			<point x="179.3165893555" y="-145.4533081055"/>
			<point x="331.5810546875" y="-32.8120727539"/>
		</contour>
		<contour>
			<point x="331.0654907227" y="-52.0227050781" type="line"/>
			<point x="389.4387817383" y="24.9475097656"/>
			<point x="489.6518554688" y="140.8892822266"/>
			<point x="536.6519775391" y="192.1115722656" type="qcurve" smooth="yes"/>
			<point x="541.0963134766" y="196.6669921875"/>
			<point x="546.8740234375" y="204.0002441406"/>
			<point x="557.0963134766" y="213.3336181641" type="qcurve"/>
			<point x="582.2077636719" y="201.8890380859"/>
			<point x="630.4305419922" y="172.6663818359"/>
			<point x="643.7640380859" y="157.8884277344" type="qcurve"/>
			<point x="636.3195800781" y="147.1105957031"/>
			<point x="628.2084960938" y="136.9995117188"/>
			<point x="621.8752441406" y="130.5551757812" type="qcurve" smooth="yes"/>
			<point x="587.3195800781" y="98.7774658203"/>
			<point x="486.41796875" y="-8.6215820312"/>
			<point x="429.7509155273" y="-79.8942871094" type="qcurve"/>
		</contour>
	</outline>
	<anchor name="bottom" x="832" y="0"/>
	<anchor name="top" x="832" y="1500"/>
</glyph>
<glyph name="R" format="2">
	<unicode hex="0052"/>
	<advance width="1270"/>
	<outline>
		<contour>
			<point x="-68.4185180664" y="0" type="line"/>
			<point x="-53.5381469727" y="100.001953125" type="line"/>
			<point x="137.6119995117" y="129.001953125" type="line"/>
			<point x="267.5584716797" y="754" type="line"/>
			<point x="373.1044311523" y="1366.7177734375" type="line"/>
			<point x="177.6996459961" y="1393.7177734375" type="line"/>
			<point x="186.2643432617" y="1500" type="line"/>
			<point x="762.3752441406" y="1500" type="line" smooth="yes"/>
			<point x="942.6948852539" y="1502"/>
			<point x="1170.0968017578" y="1288"/>
			<point x="1143.0484008789" y="1122" type="qcurve" smooth="yes"/>
			<point x="1113.8137817383" y="940"/>
			<point x="796.3092651367" y="723.7770996094"/>
			<point x="659.7875976562" y="723.7770996094" type="qcurve" smooth="yes"/>
			<point x="586.8560791016" y="723.7770996094"/>
			<point x="399.0531005859" y="722.7770996094"/>
			<point x="349.1157836914" y="729.9638671875" type="qcurve"/>
			<point x="373.5693359375" y="824.6672363281" type="line"/>
			<point x="465.2910766602" y="824.6672363281" type="line"/>
			<point x="601.3640136719" y="824.6672363281" type="line" smooth="yes"/>
			<point x="766.3082275391" y="824.6672363281"/>
			<point x="943.7377929688" y="977"/>
			<point x="963.9240112305" y="1116" type="qcurve" smooth="yes"/>
			<point x="984.1102294922" y="1254"/>
			<point x="858.6469726562" y="1390.6651611328"/>
			<point x="750.2401123047" y="1390.6651611328" type="qcurve" smooth="yes"/>
			<point x="570.2286376953" y="1390.6651611328" type="line"/>
			<point x="543.7841796875" y="1368.6651611328" type="line"/>
			<point x="430.5622558594" y="754" type="line"/>
			<point x="307.4426269531" y="130.001953125" type="line"/>
			<point x="511.6579589844" y="100.001953125" type="line"/>
			<point x="495.7775878906" y="0" type="line"/>
		</contour>
		<contour>
			<point x="616" y="792" type="line"/>
			<point x="768.4213256836" y="802.0484008789" type="line"/>
			<point x="778.4418334961" y="718" type="line" smooth="yes"/>
			<point x="806.4744873047" y="519.3916625977"/>
			<point x="926.8583984375" y="100.4199829102"/>
			<point x="1118.6439208984" y="99.4819335938" type="qcurve"/>
			<point x="1089.3082275391" y="0" type="line"/>
			<point x="1011.0736083984" y="0" type="line" smooth="yes"/>
			<point x="810.9936523438" y="0"/>
			<point x="656" y="447"/>
			<point x="624.9163818359" y="701" type="qcurve" smooth="yes"/>
		</contour>
	</outline>
	<anchor name="bottom" x="573" y="0"/>
	<anchor name="top" x="670" y="1500"/>
</glyph>
<glyph name="S" format="2">
	<unicode hex="0053"/>
	<advance width="952"/>
	<outline>
		<contour>
			<point x="-57.2135009766" y="-2.3999023438" type="line"/>
			<point x="10.3864746094" y="413" type="line"/>
			<point x="98.9890136719" y="412" type="line"/>
			<point x="99.2554931641" y="345.5568847656" type="line" smooth="yes"/>
			<point x="96.7663574219" y="234.5568847656"/>
			<point x="258.1461181641" y="91.3349609375"/>
			<point x="428.8876342773" y="91.3349609375" type="qcurve" smooth="yes"/>
			<point x="563.6509399414" y="91.3349609375"/>
			<point x="759.2026977539" y="256.2230224609"/>
			<point x="759.2026977539" y="398.6673583984" type="qcurve" smooth="yes"/>
			<point x="759.2026977539" y="519.3341064453"/>
			<point x="581.4738769531" y="647.9241943359"/>
			<point x="446.4559326172" y="747.9844970703" type="qcurve" smooth="yes"/>
			<point x="362.1290893555" y="810.2869262695"/>
			<point x="177.2216186523" y="997.7760009766"/>
			<point x="177.2216186523" y="1190" type="qcurve" smooth="yes"/>
			<point x="177.2216186523" y="1339"/>
			<point x="424.8598632812" y="1537"/>
			<point x="577.1274414062" y="1537" type="qcurve" smooth="yes"/>
			<point x="704.3967895508" y="1537"/>
			<point x="840.4058227539" y="1471.5473022461"/>
			<point x="874.8933105469" y="1438.0899658203" type="qcurve"/>
			<point x="938.2930908203" y="1542.0003662109" type="line"/>
			<point x="1010.2952880859" y="1525.7999267578" type="line"/>
			<point x="952.6953125" y="1118" type="line"/>
			<point x="854.6925048828" y="1118" type="line"/>
			<point x="845.9814453125" y="1239.5766601562" type="line"/>
			<point x="860.7823486328" y="1297.5762939453"/>
			<point x="695.6731567383" y="1421.8873291016"/>
			<point x="600.3623046875" y="1421.8873291016" type="qcurve" smooth="yes"/>
			<point x="484.2202758789" y="1421.8873291016"/>
			<point x="333.3932495117" y="1292.6658935547"/>
			<point x="333.3932495117" y="1210.1736450195" type="qcurve" smooth="yes"/>
			<point x="333.3932495117" y="1094.0707397461"/>
			<point x="452.3728027344" y="981.0662841797"/>
			<point x="603.6061401367" y="866.3684082031" type="qcurve" smooth="yes"/>
			<point x="716.6536865234" y="765.4919433594"/>
			<point x="911.7209472656" y="568.5349731445"/>
			<point x="910.7209472656" y="402.0408325195" type="qcurve" smooth="yes"/>
			<point x="910.2676391602" y="209.0136108398"/>
			<point x="630.9824829102" y="-30"/>
			<point x="447.8425292969" y="-30" type="qcurve" smooth="yes"/>
			<point x="320.7056884766" y="-30"/>
			<point x="141.0707397461" y="47.1995849609"/>
			<point x="80.3884277344" y="103.3989257812" type="qcurve"/>
			<point x="15.7886962891" y="-19.6003417969" type="line"/>
		</contour>
	</outline>
	<anchor name="bottom" x="399" y="0"/>
	<anchor name="top" x="679" y="1500"/>
</glyph>
<glyph name="T" format="2">
	<unicode hex="0054"/>
	<advance width="1149"/>
	<outline>
		<contour>
			<point x="96.4870605469" y="1104.6651611328" type="line"/>
			<point x="179.8206787109" y="1500" type="line"/>
			<point x="1278.3562011719" y="1500" type="line"/>
			<point x="1195.0225830078" y="1104.6651611328" type="line"/>
			<point x="1095.0201416016" y="1104.6651611328" type="line"/>
			<point x="1121.0218505859" y="1387.6651611328" type="line"/>
			<point x="804.0303344727" y="1387.6651611328" type="line"/>
			<point x="790.0303344727" y="1367.6651611328" type="line"/>
			<point x="676.0040283203" y="754" type="line"/>
			<point x="554.4044189453" y="130.001953125" type="line"/>
			<point x="746.4447021484" y="99.001953125" type="line"/>
			<point x="739.5235595703" y="0" type="line"/>
			<point x="172.6286621094" y="0" type="line"/>
			<point x="184.5498046875" y="99.001953125" type="line"/>
			<point x="382.0270996094" y="130.001953125" type="line"/>
			<point x="510.266784668" y="754" type="line"/>
			<point x="621.2930908203" y="1367.6651611328" type="line"/>
			<point x="617.2930908203" y="1387.6651611328" type="line"/>
			<point x="290.4877929688" y="1387.6651611328" type="line"/>
			<point x="195.4895019531" y="1104.6651611328" type="line"/>
		</contour>
	</outline>
	<anchor name="bottom" x="451" y="0"/>
	<anchor name="center" x="584" y="750"/>
	<anchor name="top" x="732" y="1500"/>
	<anchor name="cy_descender" x="755" y="100"/>
</glyph>
<glyph name="U" format="2">
	<unicode hex="0055"/>
	<advance width="1476"/>
	<outline>
		<contour>
			<point x="172.354675293" y="1393.7177734375" type="line"/>
			<point x="184.4393920898" y="1500" type="line"/>
			<point x="738.092956543" y="1500" type="line"/>
			<point x="726.0082397461" y="1393.7177734375" type="line"/>
			<point x="548.3143920898" y="1367.7177734375" type="line"/>
			<point x="422.127746582" y="794" type="line" smooth="yes"/>
			<point x="401.5143432617" y="701.4799804688"/>
			<point x="367.127746582" y="454"/>
			<point x="367.127746582" y="374" type="qcurve" smooth="yes"/>
			<point x="367.127746582" y="244.9746704102"/>
			<point x="532.1365966797" y="100.5175170898"/>
			<point x="657.3992919922" y="103.5175170898" type="qcurve" smooth="yes"/>
			<point x="820.8480224609" y="106.5175170898"/>
			<point x="1030.1309814453" y="267.1119384766"/>
			<point x="1074.7974853516" y="494" type="qcurve" smooth="yes"/>
			<point x="1133.7974853516" y="794" type="line"/>
			<point x="1234.5172119141" y="1367.7177734375" type="line"/>
			<point x="1038.2366943359" y="1393.7177734375" type="line"/>
			<point x="1049.3214111328" y="1500" type="line"/>
			<point x="1569.1813964844" y="1500" type="line"/>
			<point x="1557.0966796875" y="1393.7177734375" type="line"/>
			<point x="1369.185546875" y="1367.7177734375" type="line"/>
			<point x="1252.3546142578" y="794" type="line"/>
			<point x="1198.2435302734" y="493" type="line" smooth="yes"/>
			<point x="1148.1324462891" y="214"/>
			<point x="846.6793212891" y="-22"/>
			<point x="606.66015625" y="-22" type="qcurve" smooth="yes"/>
			<point x="416.832824707" y="-22"/>
			<point x="195.4702758789" y="173"/>
			<point x="198.4702758789" y="365" type="qcurve" smooth="yes"/>
			<point x="199.4702758789" y="445"/>
			<point x="226.9371948242" y="614.4533081055"/>
			<point x="260.9371948242" y="794" type="qcurve" smooth="yes"/>
			<point x="370.6569213867" y="1367.7177734375" type="line"/>
		</contour>
	</outline>
	<anchor name="bottom" x="588" y="0"/>
	<anchor name="ogonek" x="810" y="0"/>
	<anchor name="top" x="908" y="1500"/>
	<anchor name="topright" x="1561" y="1500"/>
</glyph>
<glyph name="V" format="2">
	<unicode hex="0056"/>
	<advance width="1209"/>
	<outline>
		<contour>
			<point x="1.8422851562" y="1393.7177734375" type="line"/>
			<point x="18.7192382812" y="1500" type="line"/>
			<point x="629.7247314453" y="1500" type="line"/>
			<point x="612.8477783203" y="1393.7177734375" type="line"/>
			<point x="377.9381103516" y="1367.7177734375" type="line"/>
			<point x="411.5971069336" y="789.8025512695" type="line"/>
			<point x="438" y="390" type="line"/>
			<point x="442" y="261" type="line"/>
			<point x="460" y="261" type="line"/>
			<point x="527" y="390" type="line"/>
			<point x="781.1244506836" y="822.6502685547" type="line"/>
			<point x="1093.7971191406" y="1367.7177734375" type="line"/>
			<point x="884.8920898438" y="1393.7177734375" type="line"/>
			<point x="897.4350585938" y="1500" type="line"/>
			<point x="1443.3774414062" y="1500" type="line"/>
			<point x="1431.2789306641" y="1393.7177734375" type="line"/>
			<point x="1225.0135498047" y="1367.7177734375" type="line"/>
			<point x="877.3942260742" y="759.7542114258" type="line"/>
			<point x="431.5220947266" y="-7" type="line"/>
			<point x="310.68359375" y="-7" type="line"/>
			<point x="255.7688598633" y="718.8120727539" type="line"/>
			<point x="213.4946289062" y="1367.7177734375" type="line"/>
		</contour>
	</outline>
	<anchor name="bottom" x="373" y="0"/>
	<anchor name="top" x="743" y="1500"/>
</glyph>
<glyph name="W" format="2">
	<unicode hex="0057"/>
	<advance width="1791"/>
	<outline>
		<contour>
			<point x="0.84765625" y="1393.7177734375" type="line"/>
			<point x="19.3498535156" y="1500" type="line"/>
			<point x="598.1912841797" y="1500" type="line"/>
			<point x="580.6890869141" y="1393.7177734375" type="line"/>
			<point x="368.3211669922" y="1368.7177734375" type="line"/>
			<point x="377.5157470703" y="772.8698120117" type="line"/>
			<point x="410" y="400" type="line"/>
			<point x="410" y="271" type="line"/>
			<point x="427" y="271" type="line"/>
			<point x="497" y="400" type="line"/>
			<point x="651.3607177734" y="694.1051025391" type="line"/>
			<point x="913" y="1121" type="line"/>
			<point x="875.7094726562" y="1370.8779296875" type="line"/>
			<point x="699.537109375" y="1398.8779296875" type="line"/>
			<point x="714.4575195312" y="1500" type="line"/>
			<point x="1256.6869506836" y="1500" type="line"/>
			<point x="1241.8099975586" y="1394.7177734375" type="line"/>
			<point x="1042.5289916992" y="1367.7177734375" type="line"/>
			<point x="1059.5565185547" y="758.0428466797" type="line"/>
			<point x="1094" y="400" type="line"/>
			<point x="1094" y="271" type="line"/>
			<point x="1111" y="271" type="line"/>
			<point x="1177" y="400" type="line"/>
			<point x="1399.9528808594" y="814.2822265625" type="line"/>
			<point x="1671.4362792969" y="1368.7177734375" type="line"/>
			<point x="1487.19921875" y="1393.7177734375" type="line"/>
			<point x="1497.7421875" y="1500" type="line"/>
			<point x="2025.5374145508" y="1500" type="line"/>
			<point x="1972" y="1385" type="line"/>
			<point x="1818.6265258789" y="1367.1977539062" type="line"/>
			<point x="1502.1417236328" y="778.2853393555" type="line"/>
			<point x="1060.9368286133" y="-5" type="line"/>
			<point x="940.1241455078" y="-5" type="line"/>
			<point x="923" y="805" type="line"/>
			<point x="921" y="934" type="line"/>
			<point x="911" y="934" type="line"/>
			<point x="844" y="805" type="line"/>
			<point x="360.7544555664" y="-5" type="line"/>
			<point x="246.1882324219" y="-5" type="line"/>
			<point x="223.3388061523" y="713.5216064453" type="line"/>
			<point x="194.4545898438" y="1367.7177734375" type="line"/>
		</contour>
	</outline>
	<anchor name="bottom" x="691" y="0"/>
	<anchor name="top" x="981" y="1500"/>
</glyph>
<glyph name="X" format="2">
	<unicode hex="0058"/>
	<advance width="1165"/>
	<outline>
		<contour>
			<point x="-224.7267456055" y="0" type="line"/>
			<point x="-216.2638549805" y="100.001953125" type="line"/>
			<point x="-36.9176635742" y="130.001953125" type="line"/>
			<point x="513" y="764" type="line"/>
			<point x="218.5239257812" y="1367.7177734375" type="line"/>
			<point x="37.2211914062" y="1393.7177734375" type="line"/>
			<point x="50.7641601562" y="1500" type="line"/>
			<point x="597.9755249023" y="1500" type="line"/>
			<point x="584.4325561523" y="1393.7177734375" type="line"/>
			<point x="408.1950073242" y="1368.7177734375" type="line"/>
			<point x="581" y="1027" type="line"/>
			<point x="627" y="913" type="line"/>
			<point x="638" y="913" type="line"/>
			<point x="724" y="1027" type="line"/>
			<point x="994.408203125" y="1369.7177734375" type="line"/>
			<point x="799.9533691406" y="1393.7177734375" type="line"/>
			<point x="813.4963378906" y="1500" type="line"/>
			<point x="1325.3767089844" y="1500" type="line"/>
			<point x="1311.8337402344" y="1393.7177734375" type="line"/>
			<point x="1130.2702636719" y="1368.7177734375" type="line"/>
			<point x="670" y="808" type="line"/>
			<point x="958.8054199219" y="130.001953125" type="line"/>
			<point x="1147.2819824219" y="100.001953125" type="line"/>
			<point x="1136.8190917969" y="0" type="line"/>
			<point x="569.8654785156" y="0" type="line"/>
			<point x="580.3283691406" y="100.001953125" type="line"/>
			<point x="768.5876464844" y="130.001953125" type="line"/>
			<point x="603" y="544" type="line"/>
			<point x="556" y="658" type="line"/>
			<point x="546" y="658" type="line"/>
			<point x="461" y="544" type="line"/>
			<point x="95.6000976562" y="130.001953125" type="line"/>
			<point x="285.0549316406" y="100.001953125" type="line"/>
			<point x="276.5920410156" y="0" type="line"/>
		</contour>
	</outline>
	<anchor name="bottom" x="453" y="0"/>
	<anchor name="top" x="723" y="1500"/>
	<anchor name="cy_descender" x="1125" y="100"/>
	<anchor name="center" x="591" y="791"/>
</glyph>
<glyph name="Z" format="2">
	<unicode hex="005A"/>
	<advance width="874"/>
	<outline>
		<contour>
			<point x="-173.1441650391" y="0" type="line"/>
			<point x="-186.6998291016" y="86.6677246094" type="line"/>
			<point x="374.0980834961" y="806.4775390625" type="line"/>
			<point x="798.3207397461" y="1371.6651611328" type="line"/>
			<point x="788.3207397461" y="1387.6651611328" type="line"/>
			<point x="257.2935180664" y="1387.6651611328" type="line"/>
			<point x="179.0722045898" y="1171" type="line"/>
			<point x="77.069519043" y="1171" type="line"/>
			<point x="148.069519043" y="1500" type="line"/>
			<point x="1039.8424072266" y="1500" type="line"/>
			<point x="1028.7312011719" y="1415.2211914062" type="line"/>
			<point x="504.2933349609" y="723.9887695312" type="line"/>
			<point x="43.3114013672" y="123.8902587891" type="line"/>
			<point x="53.3114013672" y="107.8902587891" type="line"/>
			<point x="593.3264770508" y="107.8902587891" type="line"/>
			<point x="729.4375610352" y="319" type="line"/>
			<point x="833.0399780273" y="319" type="line"/>
			<point x="718.0399780273" y="0" type="line"/>
		</contour>
	</outline>
	<anchor name="bottom" x="383" y="0"/>
	<anchor name="top" x="643" y="1500"/>
	<anchor name="_liga" x="0" y="0"/>
</glyph>
<glyph name="a" format="2">
	<unicode hex="0061"/>
	<advance width="1061"/>
	<outline>
		<contour>
			<point x="12" y="228" type="qcurve" smooth="yes"/>
			<point x="15" y="528"/>
			<point x="443.5596469786" y="991"/>
			<point x="660.6535190489" y="991" type="qcurve" smooth="yes"/>
			<point x="704.4472202208" y="991"/>
			<point x="735.1120605469" y="977"/>
			<point x="738.4561157227" y="959" type="qcurve"/>
			<point x="843.8599243164" y="1015" type="line"/>
			<point x="892.1785888672" y="1015" type="line"/>
			<point x="928.6282504942" y="878" type="line"/>
			<point x="816.4377597716" y="367" type="line"/>
			<point x="781.2456210997" y="213" type="line"/>
			<point x="781.46839942" y="145"/>
			<point x="799.5571445372" y="75"/>
			<point x="822.4400180723" y="14" type="qcurve"/>
			<point x="651.1439369908" y="-25.7202148438" type="line"/>
			<point x="614.2513588658" y="37.0560302734"/>
			<point x="634.7720497838" y="129.3491821289"/>
			<point x="600.8978432408" y="105.1864013672" type="qcurve"/>
			<point x="517.7848671666" y="64.6444091797"/>
			<point x="333.7425087682" y="-10"/>
			<point x="246.8660439244" y="-10" type="qcurve" smooth="yes"/>
			<point x="134.4690712682" y="-10"/>
			<point x="11" y="113"/>
		</contour>
		<contour>
			<point x="186.4201660156" y="250" type="qcurve" smooth="yes"/>
			<point x="185.4201660156" y="149"/>
			<point x="251.7584384825" y="118.2579345703"/>
			<point x="280.7271884825" y="118.2579345703" type="qcurve" smooth="yes"/>
			<point x="363.1717685606" y="118.2579345703"/>
			<point x="632.2951206114" y="226"/>
			<point x="666.6636513463" y="403" type="qcurve" smooth="yes"/>
			<point x="742.2964023497" y="775.6787109375" type="line"/>
			<point x="747.9924316406" y="815.6787109375"/>
			<point x="696.0640415098" y="855.5388183594"/>
			<point x="622.8417514708" y="855.5388183594" type="qcurve" smooth="yes"/>
			<point x="428.6050571348" y="855.5388183594"/>
			<point x="189.4201660156" y="494"/>
		</contour>
	</outline>
	<anchor name="bottom" x="345" y="0"/>
	<anchor name="ogonek" x="732" y="0"/>
	<anchor name="top" x="608" y="1000"/>
</glyph>
<glyph name="b" format="2">
	<unicode hex="0062"/>
	<advance width="1043"/>
	<outline>
		<contour>
			<point x="28.0726318359" y="157" type="qcurve" smooth="yes"/>
			<point x="118.1881103516" y="633" type="line"/>
			<point x="256.2110595703" y="1402.9159545898" type="line"/>
			<point x="160.6384277344" y="1462.9159545898" type="line"/>
			<point x="190.0026855469" y="1537.2811889648" type="line"/>
			<point x="371.0740966797" y="1571.2811889648" type="line"/>
			<point x="450.8033447266" y="1496.782409668" type="line"/>
			<point x="274.0313720703" y="601" type="line"/>
			<point x="191.9158935547" y="148" type="line" smooth="yes"/>
			<point x="185.887878418" y="110.4404296875"/>
			<point x="198.926574707" y="115.1127319336"/>
			<point x="206.7280273438" y="115.1127319336" type="qcurve" smooth="yes"/>
			<point x="442.5894165039" y="115.1127319336"/>
			<point x="765.2119140625" y="430"/>
			<point x="765.7198486328" y="727" type="qcurve" smooth="yes"/>
			<point x="765.7198486328" y="813.8380737305"/>
			<point x="699.7284545898" y="875.9805297852"/>
			<point x="648.5642089844" y="875.9805297852" type="qcurve" smooth="yes"/>
			<point x="536.1491699219" y="875.9805297852"/>
			<point x="244.8707885742" y="653.7626953125"/>
			<point x="212.9821166992" y="594.7103881836" type="qcurve"/>
			<point x="250.0258178711" y="763.8513793945" type="line"/>
			<point x="286.6626586914" y="807.225402832"/>
			<point x="621.862487793" y="1016"/>
			<point x="723.4416503906" y="1016" type="qcurve" smooth="yes"/>
			<point x="820.1370849609" y="1016"/>
			<point x="947.8554077148" y="887"/>
			<point x="947.6014404297" y="757" type="qcurve" smooth="yes"/>
			<point x="947.0935058594" y="427"/>
			<point x="518.0618286133" y="-13"/>
			<point x="149.8128662109" y="-13" type="qcurve" smooth="yes"/>
			<point x="84.3189086914" y="-13"/>
			<point x="12.0726318359" y="77"/>
		</contour>
	</outline>
	<anchor name="bottom" x="571" y="0"/>
	<anchor name="top" x="571" y="1533"/>
</glyph>
<glyph name="c" format="2">
	<unicode hex="0063"/>
	<advance width="901"/>
	<outline>
		<contour>
			<point x="19" y="503" type="qcurve" smooth="yes"/>
			<point x="77" y="740"/>
			<point x="390.1290283203" y="1018"/>
			<point x="570.5156860352" y="1018" type="qcurve" smooth="yes"/>
			<point x="681.1738891602" y="1018"/>
			<point x="834.3274536133" y="925"/>
			<point x="834.3274536133" y="837" type="qcurve" smooth="yes"/>
			<point x="834.3274536133" y="760"/>
			<point x="734.4827270508" y="676"/>
			<point x="661.1377563477" y="663" type="qcurve"/>
			<point x="626.5996704102" y="684" type="line"/>
			<point x="636.5996704102" y="876" type="line" smooth="yes"/>
			<point x="638.5996704102" y="906"/>
			<point x="567.2247924805" y="891.3756103516"/>
			<point x="519.6850585938" y="891.3756103516" type="qcurve" smooth="yes"/>
			<point x="397.7325439453" y="891.3756103516"/>
			<point x="225.5356445312" y="687"/>
			<point x="181.5356445312" y="497" type="qcurve" smooth="yes"/>
			<point x="135.5356445312" y="296"/>
			<point x="219.0294189453" y="112.0661010742"/>
			<point x="376.1686401367" y="112.0661010742" type="qcurve" smooth="yes"/>
			<point x="483.6340332031" y="112.0661010742"/>
			<point x="692.4031982422" y="225.4624633789"/>
			<point x="740.4701538086" y="290.5336914062" type="qcurve"/>
			<point x="789.0946044922" y="238.721496582" type="line"/>
			<point x="789.0946044922" y="195.5595703125" type="line"/>
			<point x="735.9181518555" y="133.9766845703"/>
			<point x="459.5787963867" y="-17"/>
			<point x="299.1231689453" y="-17" type="qcurve" smooth="yes"/>
			<point x="95.9876708984" y="-17"/>
			<point x="-37" y="274"/>
		</contour>
	</outline>
	<anchor name="bottom" x="343" y="0"/>
	<anchor name="top" x="600" y="1000"/>
</glyph>
<glyph name="d" format="2">
	<unicode hex="0064"/>
	<advance width="987"/>
	<outline>
		<contour>
			<point x="-25.5057957667" y="231" type="qcurve" smooth="yes"/>
			<point x="-19.7377660143" y="530"/>
			<point x="423.1159327162" y="988.1270751953"/>
			<point x="686.2737085951" y="1000" type="qcurve" smooth="yes"/>
			<point x="733.2951929701" y="1000" type="line"/>
			<point x="804.4846460951" y="1398.3635253906" type="line"/>
			<point x="701.7071802748" y="1462.6591796875" type="line"/>
			<point x="731.0714380873" y="1537.0244140625" type="line"/>
			<point x="914.4504664076" y="1571.0244140625" type="line"/>
			<point x="992.4490015639" y="1497.6794433594" type="line"/>
			<point x="793.561550392" y="469" type="line"/>
			<point x="731.7663843764" y="131.4792480469" type="line"/>
			<point x="833.1341822279" y="131.4792480469" type="line"/>
			<point x="832.1341822279" y="44" type="line"/>
			<point x="626.8327906264" y="-16" type="line"/>
			<point x="571.7949488295" y="100.8447265625" type="line"/>
			<point x="593.5317652357" y="181.7448120117" type="line"/>
			<point x="546.9271509779" y="101.651550293"/>
			<point x="278.9757959974" y="-10"/>
			<point x="181.2131617201" y="-10" type="qcurve" smooth="yes"/>
			<point x="74.481106056" y="-10"/>
			<point x="-27.7597630518" y="122"/>
		</contour>
		<contour>
			<point x="147.7605616552" y="250" type="qcurve" smooth="yes"/>
			<point x="146.512722267" y="187.5790405273"/>
			<point x="188.9211084974" y="109.2526245117"/>
			<point x="255.2061426771" y="109.2526245117" type="qcurve" smooth="yes"/>
			<point x="338.0026514662" y="109.2526245117"/>
			<point x="591.9603541029" y="226"/>
			<point x="624.6411402357" y="403" type="qcurve" smooth="yes"/>
			<point x="699.4558985365" y="789.5854492188" type="line"/>
			<point x="704.4558985365" y="823.5854492188"/>
			<point x="640.2377588881" y="863.5854492188"/>
			<point x="576.2366602553" y="863.5854492188" type="qcurve" smooth="yes"/>
			<point x="393.5785181654" y="863.5854492188"/>
			<point x="151.2684962255" y="494"/>
		</contour>
	</outline>
	<anchor name="bottom" x="604" y="0"/>
	<anchor name="center" x="876" y="1202"/>
	<anchor name="top" x="704" y="1534"/>
	<anchor name="topright" x="1076" y="1000"/>
	<anchor name="liga" x="1067" y="0"/>
</glyph>
<glyph name="e" format="2">
	<unicode hex="0065"/>
	<advance width="971"/>
	<outline>
		<contour>
			<point x="13.7886695339" y="484.7460327148" type="qcurve" smooth="yes"/>
			<point x="61.3332862332" y="731.6464233398"/>
			<point x="403.9977759792" y="1018"/>
			<point x="582.5130958035" y="1018" type="qcurve" smooth="yes"/>
			<point x="710.2325171902" y="1018"/>
			<point x="825.1828956082" y="918.1001586914"/>
			<point x="837.4209937527" y="849.2539672852" type="qcurve" smooth="yes"/>
			<point x="845.6824073269" y="806.0674438477"/>
			<point x="840.6050147488" y="706.602355957"/>
			<point x="836.5238990261" y="668.3458862305" type="qcurve"/>
			<point x="876.9422950222" y="656.4158325195" type="line"/>
			<point x="841.3153418972" y="565" type="line"/>
			<point x="750.1620215847" y="567.5769042969"/>
			<point x="589.8331298828" y="567"/>
			<point x="508.6407813503" y="567" type="qcurve" smooth="yes"/>
			<point x="118.8957519531" y="565" type="line"/>
			<point x="155.5140113308" y="659.9088745117" type="line"/>
			<point x="641.764865823" y="670.4391479492" type="line"/>
			<point x="649.2485084011" y="685.8121948242"/>
			<point x="660.2083472683" y="782.6748657227"/>
			<point x="647.7321509792" y="832.024597168" type="qcurve" smooth="yes"/>
			<point x="639.7638892605" y="860.9093017578"/>
			<point x="587.3679542019" y="892.3989257812"/>
			<point x="525.3361548855" y="892.3989257812" type="qcurve" smooth="yes"/>
			<point x="407.8598365261" y="892.3989257812"/>
			<point x="218.6215552761" y="695.825378418"/>
			<point x="184.7167701199" y="511" type="qcurve" smooth="yes"/>
			<point x="149.3687476589" y="328.0120849609"/>
			<point x="250.3571166992" y="125.7115478516"/>
			<point x="385.5752563477" y="117.0847167969" type="qcurve" smooth="yes"/>
			<point x="506.1600952148" y="108.9266357422"/>
			<point x="699.3131103516" y="202.2114868164"/>
			<point x="787.2373046875" y="283.8832397461" type="qcurve"/>
			<point x="828.524631448" y="232.0699462891" type="line"/>
			<point x="849.7798194363" y="205.6503295898" type="line"/>
			<point x="771.9760742188" y="129.5474243164"/>
			<point x="505.1032714844" y="-22.0158691406"/>
			<point x="314.0245093777" y="-13.2692871094" type="qcurve" smooth="yes"/>
			<point x="126.6079101562" y="-4.6765136719"/>
			<point x="-25.9250755833" y="271.4384155273"/>
		</contour>
	</outline>
	<anchor name="bottom" x="339" y="0"/>
	<anchor name="ogonek" x="495" y="0"/>
	<anchor name="top" x="601" y="1000"/>
</glyph>
<glyph name="f" format="2">
	<unicode hex="0066"/>
	<advance width="461"/>
	<outline>
		<contour>
			<point x="-287.1625366211" y="-415" type="line" smooth="yes"/>
			<point x="-278.3441772461" y="-328.0888671875" type="line"/>
			<point x="-205.7919311523" y="-327.7932128906" type="line" smooth="yes"/>
			<point x="-104.9013061523" y="-328.2302246094"/>
			<point x="-57.7118530273" y="-198.4221191406"/>
			<point x="-1.2194213867" y="109.9938964844" type="qcurve" smooth="yes"/>
			<point x="143.6517333984" y="901.2564697266" type="line"/>
			<point x="155.4216308594" y="947.3717651367" type="line"/>
			<point x="212.0703125" y="1225.3482666016" type="line" smooth="yes"/>
			<point x="246.7987060547" y="1400.4512329102"/>
			<point x="396.4165039062" y="1538.3482666016"/>
			<point x="482.1669921875" y="1538.3482666016" type="qcurve" smooth="yes"/>
			<point x="551.5847167969" y="1538.3482666016"/>
			<point x="635.7016601562" y="1486.3482666016"/>
			<point x="635.7016601562" y="1450.3482666016" type="qcurve" smooth="yes"/>
			<point x="635.7016601562" y="1424.3482666016"/>
			<point x="587.6638183594" y="1385.3482666016"/>
			<point x="569.6638183594" y="1385.3482666016" type="qcurve" smooth="yes"/>
			<point x="559.6638183594" y="1385.3482666016"/>
			<point x="554.6638183594" y="1398.3482666016"/>
			<point x="555.6638183594" y="1409.3482666016" type="qcurve" smooth="yes"/>
			<point x="556.6638183594" y="1378.0490112305"/>
			<point x="530.7531738281" y="1395.7705078125"/>
			<point x="504.3078613281" y="1395.7705078125" type="qcurve" smooth="yes"/>
			<point x="452.0744628906" y="1395.7705078125"/>
			<point x="368.5888671875" y="1311.7828369141"/>
			<point x="354.1945800781" y="1221.4869384766" type="qcurve" smooth="yes"/>
			<point x="312.0505371094" y="941.4183959961" type="line"/>
			<point x="313.9350585938" y="914.1398925781" type="line"/>
			<point x="180.5388793945" y="214" type="line" smooth="yes"/>
			<point x="99.231262207" y="-211.4633789062"/>
			<point x="18.8013305664" y="-447"/>
			<point x="-139.989440918" y="-447" type="qcurve"/>
		</contour>
		<contour>
			<point x="0.2299194336" y="874.2111206055" type="line"/>
			<point x="-8.7001342773" y="940.4417114258" type="line"/>
			<point x="154.9814453125" y="992.6968994141" type="line"/>
			<point x="474.4556884766" y="1002.4637451172" type="line"/>
			<point x="460.0606079102" y="872.2810668945" type="line"/>
			<point x="257.7485351562" y="887.5828857422" type="line"/>
			<point x="172.2885742188" y="863.9454345703" type="line"/>
		</contour>
	</outline>
	<anchor name="bottom" x="217" y="0"/>
	<anchor name="top" x="554" y="1536"/>
</glyph>
<glyph name="h" format="2">
	<unicode hex="0068"/>
	<advance width="1178"/>
	<outline>
		<contour>
			<point x="56.0531005859" y="-35.6918945312" type="line"/>
			<point x="15.2840576172" y="39.2697753906" type="line"/>
			<point x="123.2069091797" y="491.8088378906" type="line"/>
			<point x="291.0115966797" y="1395.9045410156" type="line"/>
			<point x="185.1958007812" y="1461.6320800781" type="line"/>
			<point x="214.5600585938" y="1535.9973144531" type="line"/>
			<point x="401.9774169922" y="1577.4970703125" type="line"/>
			<point x="482.2835693359" y="1502.9982910156" type="line"/>
			<point x="302.0885009766" y="588.5769042969" type="line"/>
			<point x="203.5499267578" y="77.5769042969" type="line"/>
			<point x="240.9730224609" y="-6" type="line"/>
		</contour>
		<contour>
			<point x="735.3380126953" y="-15.1538085938" type="line"/>
			<point x="672.9925537109" y="121.7292480469" type="line"/>
			<point x="810.7854003906" y="764.6049194336" type="line" smooth="yes"/>
			<point x="819.2395629883" y="799.3873901367"/>
			<point x="730.5275268555" y="882.9572143555"/>
			<point x="667.1615600586" y="882.9572143555" type="qcurve" smooth="yes"/>
			<point x="570.8756713867" y="882.9572143555"/>
			<point x="308.0712280273" y="652.8394165039"/>
			<point x="252.0585327148" y="571.0737915039" type="qcurve"/>
			<point x="250.3975830078" y="683" type="line"/>
			<point x="328.3399658203" y="790.2673339844"/>
			<point x="661.5875244141" y="1021"/>
			<point x="782.7542724609" y="1021" type="qcurve" smooth="yes"/>
			<point x="888.1810302734" y="1021"/>
			<point x="1007.8013916016" y="873.5959472656"/>
			<point x="977.7591552734" y="742" type="qcurve" smooth="yes"/>
			<point x="837.8890380859" y="134.001953125" type="line"/>
			<point x="969.8703613281" y="134.001953125" type="line"/>
			<point x="969.8703613281" y="46" type="line"/>
		</contour>
	</outline>
	<anchor name="bottom" x="420" y="0"/>
	<anchor name="center" x="347" y="1202"/>
	<anchor name="top" x="424" y="1534"/>
</glyph>
<glyph name="k" format="2">
	<unicode hex="006B"/>
	<advance width="1039"/>
	<outline>
		<contour>
			<point x="488.5354003906" y="452.7984008789" type="line"/>
			<point x="144.6220703125" y="165.3031005859" type="line"/>
			<point x="124.9552612305" y="261.4696044922" type="line"/>
			<point x="718.28515625" y="783.4735107422" type="line"/>
			<point x="717.5402832031" y="834.8231811523"/>
			<point x="639.6987915039" y="894.9093017578"/>
			<point x="589.0067749023" y="894.9093017578" type="qcurve" smooth="yes"/>
			<point x="529.6011352539" y="894.9093017578"/>
			<point x="341.8076782227" y="738.456237793"/>
			<point x="303.979309082" y="631.5608520508" type="qcurve"/>
			<point x="298.4732666016" y="623.1911621094" type="line"/>
			<point x="205.8575439453" y="93.7302246094" type="line"/>
			<point x="237.5115966797" y="8.9995117188" type="line"/>
			<point x="54.3223876953" y="-23" type="line"/>
			<point x="19.3223876953" y="56" type="line"/>
			<point x="120.3223876953" y="527" type="line"/>
			<point x="286.9732666016" y="1397.4089355469" type="line"/>
			<point x="185.1958007812" y="1462.6591796875" type="line"/>
			<point x="214.5600585938" y="1537.0244140625" type="line"/>
			<point x="397.3621826172" y="1578.5241699219" type="line"/>
			<point x="477.6683349609" y="1503.4484863281" type="line"/>
			<point x="345.415222168" y="844.8737182617" type="line"/>
			<point x="400.4104003906" y="913.6216430664"/>
			<point x="557.3920898438" y="1011"/>
			<point x="646.3291015625" y="1011" type="qcurve" smooth="yes"/>
			<point x="741.1475830078" y="1011"/>
			<point x="854.4919433594" y="920.1541748047"/>
			<point x="868.5197753906" y="880.3649902344" type="qcurve" smooth="yes"/>
			<point x="884.0919799805" y="774.3209838867" type="line"/>
			<point x="873.7574462891" y="754.2743530273" type="line"/>
			<point x="502.8692016602" y="464.7931518555" type="line"/>
		</contour>
		<contour>
			<point x="624.3292236328" y="595.3870239258" type="line"/>
			<point x="805.9100341797" y="158.078125" type="line"/>
			<point x="943.3885498047" y="158.078125" type="line"/>
			<point x="943.3885498047" y="68.076171875" type="line"/>
			<point x="716.3272705078" y="-7.3908691406" type="line" smooth="yes"/>
			<point x="705.1547851562" y="-12.9042358398"/>
			<point x="699.05078125" y="7.6729736328"/>
			<point x="645.4356689453" y="115" type="qcurve" smooth="yes"/>
			<point x="493.5073852539" y="498.9240112305" type="line"/>
		</contour>
	</outline>
	<anchor name="bottom" x="448" y="0"/>
	<anchor name="top" x="578" y="1534"/>
</glyph>
<glyph name="l" format="2">
	<unicode hex="006C"/>
	<advance width="578"/>
	<outline>
		<contour>
			<point x="106.8400268555" y="-14" type="line"/>
			<point x="36.1869506836" y="110.8059082031" type="line"/>
			<point x="142.1486206055" y="606" type="line"/>
			<point x="285.9149780273" y="1397.8862304688" type="line"/>
			<point x="184.137512207" y="1462.6591796875" type="line"/>
			<point x="213.5017700195" y="1537.0244140625" type="line"/>
			<point x="396.8807983398" y="1580.8317871094" type="line"/>
			<point x="477.1869506836" y="1506.3330078125" type="line"/>
			<point x="301.9918823242" y="588" type="line"/>
			<point x="217.6286010742" y="136.001953125" type="line"/>
			<point x="376.5645141602" y="156.001953125" type="line"/>
			<point x="376.5645141602" y="66" type="line"/>
		</contour>
	</outline>
	<anchor name="bottom" x="201" y="0"/>
	<anchor name="center" x="236" y="770"/>
	<anchor name="top" x="436" y="1534"/>
	<anchor name="topright" x="492" y="1000"/>
	<anchor name="centerright" x="707" y="742"/>
	<anchor name="liga" x="567" y="0"/>
</glyph>
<glyph name="m" format="2">
	<unicode hex="006D"/>
	<advance width="1791"/>
	<outline>
		<contour>
			<point x="62.1501464844" y="-37.9995117188" type="line"/>
			<point x="21.3811035156" y="37.5390625" type="line"/>
			<point x="136.9963378906" y="527" type="line"/>
			<point x="184.11328125" y="828.7023925781" type="line"/>
			<point x="55.4691162109" y="824.7023925781" type="line"/>
			<point x="59.4237060547" y="915" type="line"/>
			<point x="251.7648925781" y="1000" type="line"/>
			<point x="317.9565429688" y="1000" type="line"/>
			<point x="342.9681396484" y="732.1859130859" type="line"/>
			<point x="314.1472167969" y="588" type="line"/>
			<point x="202.1472167969" y="77" type="line"/>
			<point x="240.1472167969" y="-6" type="line"/>
		</contour>
		<contour>
			<point x="677.8276367188" y="-12.4230957031" type="line"/>
			<point x="647.8276367188" y="57.5769042969" type="line"/>
			<point x="800.3392944336" y="769.5769042969" type="line" smooth="yes"/>
			<point x="809.7701416016" y="809.9984741211"/>
			<point x="722.1118774414" y="880.5155029297"/>
			<point x="641.5719604492" y="880.5155029297" type="qcurve" smooth="yes"/>
			<point x="562.0196533203" y="880.5155029297"/>
			<point x="306.9456787109" y="644.7263793945"/>
			<point x="241.2432250977" y="586.7007446289" type="qcurve"/>
			<point x="240.8701782227" y="698.1386108398" type="line"/>
			<point x="314.8278808594" y="800.4364013672"/>
			<point x="646.8242797852" y="1021.5769042969"/>
			<point x="770.8349609375" y="1021.5769042969" type="qcurve" smooth="yes"/>
			<point x="883.9865722656" y="1021.5769042969"/>
			<point x="998.3996582031" y="877.4091796875"/>
			<point x="964.6708984375" y="742.5769042969" type="qcurve" smooth="yes"/>
			<point x="828.2861328125" y="133.1528320312" type="line"/>
			<point x="874.82421875" y="21.3071289062" type="line"/>
		</contour>
		<contour>
			<point x="1343.671875" y="-21.4997558594" type="line"/>
			<point x="1281.3264160156" y="115.3833007812" type="line"/>
			<point x="1421.8266601562" y="768.5116577148" type="line" smooth="yes"/>
			<point x="1430.4555053711" y="807.1422729492"/>
			<point x="1342.2666625977" y="882.9572143555"/>
			<point x="1272.512512207" y="882.9572143555" type="qcurve" smooth="yes"/>
			<point x="1186.7864379883" y="882.9572143555"/>
			<point x="928.3330078125" y="635.8426513672"/>
			<point x="872.7947387695" y="570.496887207" type="qcurve"/>
			<point x="867.0954589844" y="683" type="line"/>
			<point x="923.8287353516" y="773.8432617188"/>
			<point x="1263.0690917969" y="1021"/>
			<point x="1392.4953613281" y="1021" type="qcurve" smooth="yes"/>
			<point x="1504.4509277344" y="1021"/>
			<point x="1619.3955078125" y="884.7412109375"/>
			<point x="1586.669921875" y="742" type="qcurve" smooth="yes"/>
			<point x="1447.3767089844" y="134.001953125" type="line"/>
			<point x="1583.3963623047" y="134.001953125" type="line"/>
			<point x="1583.3963623047" y="46" type="line"/>
		</contour>
	</outline>
	<anchor name="bottom" x="958" y="0"/>
	<anchor name="top" x="958" y="1000"/>
	<anchor name="cy_descender" x="1572" y="134"/>
</glyph>
<glyph name="n" format="2">
	<unicode hex="006E"/>
	<advance width="1163"/>
	<outline>
		<contour>
			<point x="63.6696777344" y="-23" type="line"/>
			<point x="28.6696777344" y="50.6533203125" type="line"/>
			<point x="136.9963378906" y="527" type="line"/>
			<point x="188.927734375" y="828.7023925781" type="line"/>
			<point x="55.4691162109" y="824.7023925781" type="line"/>
			<point x="59.4237060547" y="915" type="line"/>
			<point x="246.5727539062" y="997.3266601562" type="line"/>
			<point x="317.9565429688" y="997.3266601562" type="line"/>
			<point x="339.9934082031" y="736" type="line"/>
			<point x="312.9934082031" y="588" type="line"/>
			<point x="203.6667480469" y="67.6433105469" type="line"/>
			<point x="230.9733886719" y="-7.3366699219" type="line"/>
		</contour>
		<contour>
			<point x="699.3071289062" y="-11.0593261719" type="line"/>
			<point x="669.0004882812" y="75" type="line"/>
			<point x="805.0486450195" y="725.5375366211" type="line" smooth="yes"/>
			<point x="820.0739135742" y="798.1540527344"/>
			<point x="732.9974975586" y="876.4821777344"/>
			<point x="653.9719238281" y="876.4821777344" type="qcurve" smooth="yes"/>
			<point x="560.9077148438" y="876.4821777344"/>
			<point x="320.0938110352" y="664.3271484375"/>
			<point x="252.0347900391" y="554.2886352539" type="qcurve"/>
			<point x="245.8471679688" y="668.6490478516" type="line"/>
			<point x="267.5503540039" y="769.7139282227"/>
			<point x="601.8315429688" y="1021"/>
			<point x="720.2145996094" y="1021" type="qcurve" smooth="yes"/>
			<point x="852.5725097656" y="1021"/>
			<point x="1004.6958007812" y="873.7783203125"/>
			<point x="982.125" y="773.2780761719" type="qcurve" smooth="yes"/>
			<point x="838.8229980469" y="134.001953125" type="line"/>
			<point x="971.2816162109" y="134.001953125" type="line"/>
			<point x="971.2816162109" y="46" type="line"/>
		</contour>
	</outline>
	<anchor name="bottom" x="522" y="0"/>
	<anchor name="top" x="602" y="1000"/>
	<anchor name="liga" x="1173" y="0"/>
</glyph>
<glyph name="o" format="2">
	<unicode hex="006F"/>
	<advance width="1056"/>
	<outline>
		<contour>
			<point x="11.0314675071" y="531" type="qcurve" smooth="yes"/>
			<point x="57.5769042969" y="763.7465820312"/>
			<point x="379.0244750977" y="1030"/>
			<point x="573.9820556641" y="1016" type="qcurve" smooth="yes"/>
			<point x="798.1110229492" y="999.4384155273"/>
			<point x="970.1715698242" y="703"/>
			<point x="920.3721657493" y="475" type="qcurve" smooth="yes"/>
			<point x="874.5787963867" y="259.9841308594"/>
			<point x="554.1306762695" y="-30"/>
			<point x="356.1884155273" y="-16" type="qcurve" smooth="yes"/>
			<point x="134.5520629883" y="-0.0153198242"/>
			<point x="-35.7619018555" y="297.6923828125"/>
		</contour>
		<contour>
			<point x="187.7592507102" y="553" type="qcurve" smooth="yes"/>
			<point x="140.5380230236" y="354.1560888282"/>
			<point x="224.2414894797" y="103.5612792969"/>
			<point x="375.8074074485" y="92.9508056641" type="qcurve" smooth="yes"/>
			<point x="541.8606301047" y="81.9508056641"/>
			<point x="712.6049650387" y="318.7787129654"/>
			<point x="745.7598610618" y="479.7460327148" type="qcurve" smooth="yes"/>
			<point x="783.7738586159" y="662.5014723925"/>
			<point x="708.8675881125" y="889.2357177734"/>
			<point x="552.2504006125" y="902.2357177734" type="qcurve" smooth="yes"/>
			<point x="411.2997170188" y="914.2357177734"/>
			<point x="230.2069256512" y="732.1660583458"/>
		</contour>
	</outline>
	<anchor name="bottom" x="358" y="0"/>
	<anchor name="center" x="461" y="500"/>
	<anchor name="ogonek" x="514" y="0"/>
	<anchor name="top" x="584" y="1000"/>
	<anchor name="topright" x="663" y="1000"/>
	<anchor name="GRKtop" x="584" y="1000"/>
	<anchor name="yu_dash" x="83" y="498"/>
</glyph>
<glyph name="p" format="2">
	<unicode hex="0070"/>
	<advance width="1055"/>
	<outline>
		<contour>
			<point x="-51.9645996094" y="-360.2702636719" type="line"/>
			<point x="145.3430175781" y="576" type="line"/>
			<point x="172.7277832031" y="728.7700195312" type="line"/>
			<point x="126.1125488281" y="952.4240722656" type="line"/>
			<point x="238.4182128906" y="1016" type="line"/>
			<point x="293.2250976562" y="1016" type="line"/>
			<point x="323.2250976562" y="778.7619018555" type="line"/>
			<point x="403.2082519531" y="862.7619018555"/>
			<point x="633.5468139648" y="1016"/>
			<point x="744.3920288086" y="1016" type="qcurve" smooth="yes"/>
			<point x="843.1333007812" y="1016"/>
			<point x="960.6994018555" y="887"/>
			<point x="960.1914672852" y="757" type="qcurve" smooth="yes"/>
			<point x="959.6835327148" y="427"/>
			<point x="565.1290893555" y="30"/>
			<point x="333.1934204102" y="30" type="qcurve" smooth="yes"/>
			<point x="297.7807006836" y="30"/>
			<point x="216.6695556641" y="41"/>
			<point x="199.2250976562" y="51" type="qcurve"/>
			<point x="124.3845214844" y="-305.2482910156" type="line"/>
			<point x="267.1619873047" y="-347.634765625" type="line"/>
			<point x="238.7977294922" y="-428" type="line"/>
			<point x="81.7646484375" y="-468.3459472656" type="line"/>
		</contour>
		<contour>
			<point x="234.9453125" y="251.4844970703" type="line"/>
			<point x="224.1992797852" y="190.4844970703"/>
			<point x="328.0088500977" y="155.4844970703"/>
			<point x="364.3104858398" y="155.4844970703" type="qcurve" smooth="yes"/>
			<point x="523.5805053711" y="155.4844970703"/>
			<point x="778.9557495117" y="462"/>
			<point x="779.463684082" y="727" type="qcurve" smooth="yes"/>
			<point x="779.9716186523" y="828"/>
			<point x="695.7788696289" y="880.3756103516"/>
			<point x="646.0803833008" y="880.3756103516" type="qcurve" smooth="yes"/>
			<point x="553.4136352539" y="880.3756103516"/>
			<point x="364.9764404297" y="728.4455566406"/>
			<point x="307.5281982422" y="639.4455566406" type="qcurve"/>
			<point x="295.2250976562" y="575" type="line"/>
		</contour>
	</outline>
	<anchor name="bottom" x="599" y="0"/>
	<anchor name="top" x="599" y="1000"/>
</glyph>
<glyph name="q" format="2">
	<unicode hex="0071"/>
	<advance width="1057"/>
	<outline>
		<contour>
			<point x="18.5238037109" y="248" type="qcurve" smooth="yes"/>
			<point x="22.2857055664" y="548"/>
			<point x="386.51171875" y="991"/>
			<point x="598.4791870117" y="991" type="qcurve" smooth="yes"/>
			<point x="652.1776123047" y="991"/>
			<point x="730.5744628906" y="977"/>
			<point x="754.7808227539" y="959" type="qcurve"/>
			<point x="807.1722412109" y="1015" type="line"/>
			<point x="858.7486572266" y="1015" type="line"/>
			<point x="906.0936279297" y="797.8103027344" type="line"/>
			<point x="828.8238525391" y="452" type="line"/>
			<point x="668.4151611328" y="-305.7255859375" type="line"/>
			<point x="789.7607421875" y="-347.634765625" type="line"/>
			<point x="761.396484375" y="-428" type="line"/>
			<point x="626.6710205078" y="-474.6918945312" type="line"/>
			<point x="491.7879638672" y="-367.1931152344" type="line"/>
			<point x="622.6341552734" y="196" type="line"/>
			<point x="620.6341552734" y="197" type="line"/>
			<point x="537.5130615234" y="111.7460327148"/>
			<point x="340.2166748047" y="10"/>
			<point x="241.7737426758" y="10" type="qcurve" smooth="yes"/>
			<point x="133.9262695312" y="10"/>
			<point x="17.2698364258" y="132.2380981445"/>
		</contour>
		<contour>
			<point x="194.0977783203" y="270" type="qcurve" smooth="yes"/>
			<point x="192.8438110352" y="190.975402832"/>
			<point x="258.9857788086" y="130.229309082"/>
			<point x="305.3837280273" y="130.229309082" type="qcurve" smooth="yes"/>
			<point x="400.018737793" y="130.229309082"/>
			<point x="632.375793457" y="271.1790161133"/>
			<point x="662.0189208984" y="423" type="qcurve" smooth="yes"/>
			<point x="742.2987060547" y="784.4688720703" type="line"/>
			<point x="739.5526733398" y="824.4688720703"/>
			<point x="668.9176025391" y="858.4688720703"/>
			<point x="598.2349853516" y="858.4688720703" type="qcurve" smooth="yes"/>
			<point x="422.1463623047" y="858.4688720703"/>
			<point x="197.6057128906" y="488.1178588867"/>
		</contour>
	</outline>
	<anchor name="bottom" x="594" y="0"/>
	<anchor name="top" x="594" y="1000"/>
</glyph>
<glyph name="r" format="2">
	<unicode hex="0072"/>
	<advance width="787"/>
	<outline>
		<contour>
			<point x="81.9529418945" y="-14.4883422852" type="line"/>
			<point x="34.5514526367" y="79.3545532227" type="line"/>
			<point x="148.9185180664" y="533.0422363281" type="line"/>
			<point x="175.2858276367" y="823.7267456055" type="line"/>
			<point x="38.9039306641" y="811.1693725586" type="line"/>
			<point x="42.8585205078" y="908.5726928711" type="line"/>
			<point x="239.33203125" y="998.4780273438" type="line"/>
			<point x="305.3565673828" y="1003.4069824219" type="line"/>
			<point x="324.8301391602" y="800.6979980469" type="line"/>
			<point x="338.4890136719" y="719.9919433594" type="line"/>
			<point x="227.2536621094" y="136.530456543" type="line"/>
			<point x="356.4733276367" y="106.6166381836" type="line"/>
			<point x="358.8695068359" y="19.5003051758" type="line"/>
		</contour>
		<contour>
			<point x="635.5199584961" y="651.4778442383" type="line"/>
			<point x="618.0376586914" y="865.7837524414" type="line"/>
			<point x="517.7958243582" y="865.779741219"/>
			<point x="337.4724435113" y="720.4160122834"/>
			<point x="232.1431884766" y="569.7855834961" type="qcurve"/>
			<point x="243.4976806641" y="682.3314819336" type="line"/>
			<point x="335.5619311893" y="836.4768061659"/>
			<point x="562.8068525414" y="1013.9906616211"/>
			<point x="675.4594726562" y="1013.9906616211" type="qcurve" smooth="yes"/>
			<point x="732.2196461245" y="1013.9906616211"/>
			<point x="786.455871582" y="985.0641018092"/>
			<point x="786.455871582" y="934.998046875" type="qcurve" smooth="yes"/>
			<point x="786.455871582" y="848.5528828123"/>
			<point x="714.3856201388" y="640.3182672639"/>
			<point x="662.4204101562" y="647.7077026367" type="qcurve" smooth="yes"/>
		</contour>
	</outline>
	<anchor name="bottom" x="282" y="0"/>
	<anchor name="top" x="486" y="1000"/>
</glyph>
<glyph name="t" format="2">
	<unicode hex="0074"/>
	<advance width="546"/>
	<outline>
		<contour>
			<point x="122.6488037109" y="-15" type="line"/>
			<point x="16.9195556641" y="61" type="line"/>
			<point x="103.9195556641" y="512" type="line"/>
			<point x="160.1932373047" y="853.1295776367" type="line"/>
			<point x="12.6021728516" y="869.7448120117" type="line"/>
			<point x="25.4622802734" y="937.5570068359" type="line"/>
			<point x="87.7818603516" y="951.4036865234"/>
			<point x="269.6552124023" y="1254.7791748047"/>
			<point x="273.7743530273" y="1237" type="qcurve"/>
			<point x="351.1868896484" y="1237" type="line"/>
			<point x="374.0325927734" y="1179.1159667969" type="line"/>
			<point x="258.2630615234" y="524" type="line"/>
			<point x="212.0826416016" y="121.7062988281" type="line"/>
			<point x="372.5848388672" y="141.7062988281" type="line"/>
			<point x="372.5848388672" y="58" type="line"/>
		</contour>
		<contour>
			<point x="247.1340332031" y="879.1165771484" type="line"/>
			<point x="287.7609863281" y="987.8355102539" type="line"/>
			<point x="558.1766357422" y="1002.4857788086" type="line"/>
			<point x="562.1999511719" y="905.1165771484" type="line"/>
		</contour>
	</outline>
	<anchor name="bottom" x="149" y="0"/>
	<anchor name="center" x="262" y="622"/>
	<anchor name="top" x="322" y="1179"/>
	<anchor name="topright" x="600" y="920"/>
</glyph>
<glyph name="w" format="2">
	<unicode hex="0077"/>
	<advance width="1501"/>
	<outline>
		<contour>
			<point x="260.2595825195" y="-8" type="line"/>
			<point x="173.7151489258" y="498.4298095703" type="line"/>
			<point x="115.0539550781" y="834.7023925781" type="line"/>
			<point x="11.7991943359" y="831.7023925781" type="line"/>
			<point x="14.7537841797" y="923" type="line"/>
			<point x="202.0190429688" y="1001" type="line"/>
			<point x="273.7204589844" y="1001" type="line"/>
			<point x="326.288269043" y="584.2022705078" type="line"/>
			<point x="384.076171875" y="216.5495605469" type="line"/>
			<point x="387.3282470703" y="144.6755981445" type="line"/>
			<point x="391.3282470703" y="144.6755981445" type="line"/>
			<point x="427.4893188477" y="221.2688598633" type="line"/>
			<point x="489.8229370117" y="338.5504760742"/>
			<point x="602.5290527344" y="531.7172241211"/>
			<point x="626.7270507812" y="592.5919799805" type="qcurve"/>
			<point x="582.3923339844" y="833.9932861328" type="line"/>
			<point x="508.5924682617" y="830.789855957" type="line"/>
			<point x="510.6602783203" y="922.7681884766" type="line"/>
			<point x="673.3494873047" y="1000.7681884766" type="line"/>
			<point x="740.4251708984" y="1000.7681884766" type="line"/>
			<point x="801.6737670898" y="559.0135498047" type="line"/>
			<point x="859.1268920898" y="208.967590332" type="line"/>
			<point x="867.1438598633" y="139.135559082" type="line"/>
			<point x="871.1438598633" y="139.135559082" type="line"/>
			<point x="925.8550415039" y="211.3366699219" type="line"/>
			<point x="1084.8037109375" y="421.2261962891"/>
			<point x="1215.9118041992" y="717.7888183594"/>
			<point x="1204.3737182617" y="803" type="qcurve" smooth="yes"/>
			<point x="1192.8356323242" y="857"/>
			<point x="1054.8380737305" y="886.6166992188"/>
			<point x="1053.6842651367" y="911.84765625" type="qcurve" smooth="yes"/>
			<point x="1052.530456543" y="955.2702636719"/>
			<point x="1129.837097168" y="1026"/>
			<point x="1186.2208862305" y="1026" type="qcurve" smooth="yes"/>
			<point x="1256.7968139648" y="987.5181884766"/>
			<point x="1366.602722168" y="942.6928710938"/>
			<point x="1366.602722168" y="851.078125" type="qcurve" smooth="yes"/>
			<point x="1366.602722168" y="795"/>
			<point x="1170.7116699219" y="349.4240722656"/>
			<point x="875.1735229492" y="-8" type="qcurve"/>
			<point x="726.0485229492" y="-8" type="line"/>
			<point x="660.6913452148" y="371.1550292969" type="line"/>
			<point x="656.1394042969" y="425.7072143555" type="line"/>
			<point x="652.1394042969" y="425.7072143555" type="line"/>
			<point x="625.5993041992" y="364.3583374023" type="line"/>
			<point x="595.0911254883" y="299.1616210938"/>
			<point x="473.1726074219" y="105.1967163086"/>
			<point x="408.6644287109" y="-8" type="qcurve"/>
		</contour>
	</outline>
	<anchor name="bottom" x="787" y="0"/>
	<anchor name="top" x="717" y="1000"/>
</glyph>
